# xmcd
#
# Track frame offsets: 
#        150
#        2864
#        23424
#        42749
#        70521
#        100979
#        127534
#        153566
#        172472
#        199338
#        224808
#        247251
#
# Disc length: 3471 seconds
#
# Revision: 1
# Processed by: cddbd v1.5.2PL0 Copyright (c) Steve Scherf et al.
# Submitted via: ExactAudioCopy v0.95b4
#
DISCID=b00d8d0c
DTITLE=FreeTEMPO - THE WORLD IS ECHOED
DYEAR=2003
DGENRE=Jazz
TTITLE0=Tuning
TTITLE1=SkyHigh
TTITLE2=Etude
TTITLE3=Vamous a Bailar
TTITLE4=Refeeling
TTITLE5=Reclaudia
TTITLE6=Duet
TTITLE7=Twilight
TTITLE8=ReSaudade
TTITLE9=SkyHigh(clip jazz mix)
TTITLE10=New Days
TTITLE11=The World Echoes and Suits
EXTD=YEAR: 2003
EXTT0=
EXTT1=
EXTT2=
EXTT3=
EXTT4=
EXTT5=
EXTT6=
EXTT7=
EXTT8=
EXTT9=
EXTT10=
EXTT11=
PLAYORDER=
